<svg width="24" height="21" viewBox="0 0 24 21" fill="none" xmlns="http://www.w3.org/2000/svg">
<path d="M19.7629 11.578H1.66653C1.4083 11.578 1.16064 11.4737 0.978049 11.2879C0.795453 11.1022 0.692871 10.8502 0.692871 10.5876C0.692871 10.3249 0.795453 10.0729 0.978049 9.8872C1.16064 9.70145 1.4083 9.5971 1.66653 9.5971H19.7629L12.6611 2.37466C12.4782 2.18868 12.3755 1.93644 12.3755 1.67342C12.3755 1.4104 12.4782 1.15815 12.6611 0.972172C12.8439 0.78619 13.0918 0.681707 13.3504 0.681707C13.609 0.681707 13.8569 0.78619 14.0398 0.972172L22.8027 9.88631C22.8933 9.97832 22.9653 10.0876 23.0144 10.2079C23.0634 10.3283 23.0887 10.4573 23.0887 10.5876C23.0887 10.7178 23.0634 10.8468 23.0144 10.9672C22.9653 11.0875 22.8933 11.1968 22.8027 11.2888L14.0398 20.2029C13.8569 20.3889 13.609 20.4934 13.3504 20.4934C13.0918 20.4934 12.8439 20.3889 12.6611 20.2029C12.4782 20.017 12.3755 19.7647 12.3755 19.5017C12.3755 19.2387 12.4782 18.9864 12.6611 18.8005L19.7629 11.578Z" fill="white"/>
</svg>
