<svg width="20" height="18" viewBox="0 0 20 18" fill="none" xmlns="http://www.w3.org/2000/svg">
<path d="M17.03 9.93239H0.869498C0.638893 9.93239 0.417733 9.8392 0.25467 9.67333C0.0916077 9.50745 0 9.28247 0 9.04789C0 8.8133 0.0916077 8.58833 0.25467 8.42245C0.417733 8.25657 0.638893 8.16339 0.869498 8.16339H17.03L10.6879 1.71358C10.5246 1.5475 10.4329 1.32224 10.4329 1.08735C10.4329 0.852474 10.5246 0.627213 10.6879 0.461126C10.8511 0.29504 11.0726 0.201735 11.3035 0.201735C11.5344 0.201735 11.7558 0.29504 11.9191 0.461126L19.7446 8.42166C19.8255 8.50382 19.8898 8.60143 19.9336 8.70889C19.9774 8.81635 20 8.93155 20 9.04789C20 9.16423 19.9774 9.27943 19.9336 9.38689C19.8898 9.49435 19.8255 9.59196 19.7446 9.67412L11.9191 17.6347C11.7558 17.8007 11.5344 17.894 11.3035 17.894C11.0726 17.894 10.8511 17.8007 10.6879 17.6347C10.5246 17.4686 10.4329 17.2433 10.4329 17.0084C10.4329 16.7735 10.5246 16.5483 10.6879 16.3822L17.03 9.93239Z" fill="#333333"/>
</svg>
